<svg width="1032" height="1549" viewBox="0 0 1032 1549" fill="currentColor" xmlns="http://www.w3.org/2000/svg">
  <path fill-rule="evenodd" clip-rule="evenodd" d="M140.14 1.19299C103.941 4.19299 71.6961 19.263 45.4271 45.46C19.6601 71.157 5.05806 101.746 1.01206 138.5C0.222058 145.682 -0.052925 325.219 0.036075 775.5C0.170075 1446.06 -0.083919 1412.09 4.94208 1431.77C11.5541 1457.67 24.3031 1480.83 42.3281 1499.68C62.5411 1520.83 86.6621 1535.06 114.552 1542.29C142.182 1549.46 129.996 1549.27 526.5 1548.73C910.409 1548.2 891.766 1548.47 914 1543.17C932.109 1538.86 951.914 1529.82 967.693 1518.68C978.891 1510.77 994.769 1494.89 1002.68 1483.69C1014.89 1466.4 1024.72 1443.6 1028.46 1423.89C1030.3 1414.19 1030.78 1262.93 1031.24 544.5L1031.5 139.5L1029.31 127.978C1023.11 95.445 1008.73 67.73 986.498 45.502C973.6 32.603 961.897 24.364 944.5 15.93C929.572 8.69399 918.59 5.123 902.5 2.272C893.048 0.597003 872.098 0.5 520.5 0.5C315.9 0.5 144.738 0.811993 140.14 1.19299ZM139.5 50.266C124.741 51.88 107.906 58.242 94.1891 67.387C86.7181 72.369 73.877 84.879 68.412 92.5C60.877 103.007 53.9661 119.108 50.8141 133.5C48.7861 142.762 48.8731 1404.37 50.9031 1414.5C55.2511 1436.2 65.6911 1454.93 82.1201 1470.5C98.3921 1485.93 117.44 1494.87 141 1498.14C155.841 1500.2 244.137 1500.53 547 1499.66C905.03 1498.63 890.589 1498.75 899.552 1496.71C926.696 1490.54 949.45 1475.43 964.129 1453.81C969.638 1445.7 976.338 1431.32 979.182 1421.5L981.5 1413.5L981.551 1329.5C981.579 1283.3 981.804 997.325 982.051 694C982.482 164.194 982.429 142.146 980.685 133.5C976.391 112.21 965.012 91.659 949.464 77.115C936.769 65.24 922.297 57.454 903.074 52.158L893.5 49.52L520 49.51C314.575 49.505 143.35 49.845 139.5 50.266ZM105.324 81.382C88.659 86.822 77.3731 105.523 80.8821 121.883C83.5211 134.191 90.4801 142.98 101.799 148.301C107.521 150.99 109.596 151.442 116 151.389C130.03 151.273 142.271 143.731 148.545 131.337C151.232 126.029 151.5 124.594 151.499 115.5C151.499 106.494 151.222 104.974 148.714 100.214C144.737 92.663 139.96 87.791 132.768 83.95C127.3 81.03 125.416 80.565 118 80.311C112.751 80.131 107.903 80.54 105.324 81.382ZM904.324 81.382C887.659 86.822 876.373 105.523 879.882 121.883C882.521 134.191 889.48 142.98 900.799 148.301C906.521 150.99 908.596 151.442 915 151.389C929.03 151.273 941.271 143.731 947.545 131.337C950.232 126.029 950.5 124.594 950.499 115.5C950.499 106.494 950.222 104.974 947.714 100.214C943.737 92.663 938.96 87.791 931.768 83.95C926.3 81.03 924.416 80.565 917 80.311C911.751 80.131 906.903 80.54 904.324 81.382ZM109.5 96.207C101.354 99.054 95.983 106.769 96.022 115.566C96.075 127.479 104.678 136 116.652 136C126.539 136 135.047 128.536 136.545 118.549C138.767 103.733 123.664 91.256 109.5 96.207ZM908.5 96.207C900.354 99.054 894.983 106.769 895.022 115.566C895.075 127.479 903.678 136 915.652 136C925.539 136 934.047 128.536 935.545 118.549C937.767 103.733 922.664 91.256 908.5 96.207ZM305.994 148.934C299.103 151.03 292.904 156.283 289.396 163C286.916 167.747 286.915 178.25 289.394 183C294.704 193.176 302.262 197 317.062 197H325.762L326.435 250.75C326.806 280.313 327.197 305.4 327.304 306.5C327.481 308.306 326.699 308.566 319.258 309.183C305.701 310.307 297.649 315.975 294.363 326.705C291.868 334.853 294 343.074 300.362 349.835C307.637 357.567 310.268 357.93 352.229 356.979C389.51 356.134 392.295 355.775 399.098 350.931C400.728 349.769 403.395 346.497 405.022 343.66C407.469 339.393 407.983 337.368 407.991 331.956C407.999 326.342 407.538 324.641 404.75 319.992C400.021 312.106 394.229 308.798 384.122 308.213L376.321 307.762L375.661 267.217C375.297 244.917 375 220.048 375 211.952V197.233L384.75 196.807C395.864 196.322 400.638 194.455 405.802 188.573C408.662 185.315 412 176.929 412 173C412 169.071 408.662 160.685 405.802 157.427C399.637 150.406 396.911 149.674 374 148.89C346.768 147.958 309.122 147.983 305.994 148.934ZM480.773 149.555C436.867 160.198 413.352 226.485 430.596 291C433.701 302.615 442.074 320.354 448.38 328.677C474.041 362.545 513.787 364.763 539.562 333.764C541.728 331.16 543.78 329.022 544.122 329.014C544.464 329.006 545.015 330.693 545.346 332.763C546.198 338.088 551.187 345.462 555.99 348.494C563.93 353.506 572.954 353.561 581.337 348.648C586.691 345.511 589.726 341.562 591.62 335.269C593.298 329.692 593.542 280.096 591.926 273C589.751 263.446 582.046 255.982 572.264 253.951C568.881 253.249 555.189 252.733 537.587 252.645L508.5 252.5L503 255.5C493.161 260.867 488.194 271.737 490.903 281.975C492.574 288.293 496.282 293.53 500.983 296.215C503.184 297.472 504.988 298.768 504.992 299.097C505.01 300.45 497.779 307 496.268 307C493.57 307 485.418 297.663 482.178 290.862C476.677 279.311 474.804 270.204 474.261 252.368C473.572 229.683 476.659 215.623 484.99 203.515C488.994 197.695 492.024 196.14 495.616 198.062C499.716 200.256 505.609 209.392 509.647 219.814C515.552 235.054 522.973 241.32 535.126 241.329C546.384 241.338 556.836 231.946 558.591 220.244C559.832 211.968 553.234 194.086 543.593 179.596C527.527 155.451 503.618 144.017 480.773 149.555ZM702.222 150.537C699.319 152.005 695.779 154.734 694.355 156.601C689.379 163.125 689.091 165.329 689.044 197.25L689 227H677.164H665.329L664.378 198.25C663.326 166.419 663.071 165.218 655.908 158.214C642.799 145.398 619.434 153.521 616.253 172C615.827 174.475 615.709 212.275 615.989 256L616.5 335.5L618.876 340.757C624.842 353.955 639.627 359.137 652.041 352.381C654.901 350.825 658.349 348.098 659.705 346.321C664.473 340.068 665 335.944 665 304.841V276H677.422H689.844L690.172 305.75C690.479 333.622 690.634 335.784 692.624 340C696.647 348.522 703.453 353.674 712.03 354.69C721.773 355.844 731.483 350.621 736.284 341.643L738.5 337.5L738.188 257C738.012 211.547 737.451 173.67 736.899 170C734.919 156.814 726.597 148.853 714.119 148.209C708.516 147.919 706.69 148.277 702.222 150.537ZM163.748 150.366C157.931 152.536 153.722 156.267 150.474 162.13L147.5 167.5V253.5C147.5 335.493 147.587 339.663 149.364 343C151.973 347.899 155.82 351.816 160.5 354.342C164.448 356.472 165.09 356.497 210.324 356.299C261.698 356.075 263.864 355.828 270.983 349.396C283.643 337.959 280.985 318.301 265.688 310.235L260.5 307.5L228.25 307.822L196 308.144L195.994 239.822C195.991 198.197 195.605 170.119 195.007 167.965C193.338 161.957 188.461 155.354 183.578 152.493C178.005 149.227 169.303 148.293 163.748 150.366ZM768.969 151.466C754.906 156.018 748.186 171.267 754.381 184.571C759.155 194.824 767.746 199 784.065 199H793.766L794.449 237.75C795.899 319.958 796.519 336.168 798.382 340.5C805.865 357.905 829.482 360.826 839.736 345.615C845.364 337.268 845.329 337.825 844.104 274.5C843.487 242.6 842.986 212.788 842.991 208.25L843 200H852.057C863.384 200 868.252 198.79 874.143 194.509C887.953 184.475 886.943 164.206 872.193 155.36C869.314 153.634 865.055 151.964 862.729 151.65C860.403 151.336 839.375 150.837 816 150.54C780.311 150.086 772.774 150.235 768.969 151.466ZM485.5 489.147C445.9 489.587 410.648 490.376 407.162 490.899C396.612 492.483 389.209 498.963 386.134 509.305C384.765 513.909 384.549 540.888 384.239 746.5C383.983 915.667 384.194 980.26 385.017 984.998C386.38 992.851 390.152 1000.12 394.645 1003.54C400.924 1008.33 404.719 1009 425.648 1009H445.045L450.408 1017.25C456.826 1027.12 460.915 1031.2 467.189 1033.97C471.832 1036.02 472.881 1036.04 575.894 1036.05C668.522 1036.06 680.327 1035.89 683.706 1034.48C688.051 1032.67 693.513 1027.76 695.59 1023.79C696.739 1021.6 725.327 944.844 734.62 919C738.461 908.319 737.582 902.896 730.283 892.241C727.743 888.533 707.965 857.006 686.332 822.181L647 758.861L646.997 641.181C646.995 561.54 646.638 520.594 645.892 514.509C644.129 500.137 639.446 493.185 629.056 489.52C624.169 487.795 610.231 487.759 485.5 489.147ZM505 538.054C479.975 538.421 453.538 538.784 446.25 538.861L433 539V631.337V723.674L475.164 724.337C498.354 724.702 535.479 725 557.664 725H598V631V537L574.25 537.193C561.188 537.3 530.025 537.687 505 538.054ZM490.146 829.337L525.34 886L594.42 885.9C632.414 885.845 664.464 885.508 665.643 885.15C667.608 884.554 665.284 880.474 637.642 836C621.063 809.325 605.58 784.463 603.234 780.75L598.969 774H563.148C543.447 774 511.042 773.702 491.139 773.337L454.951 772.675L490.146 829.337ZM433 864.681V899.695L452.1 929.597C462.606 946.044 471.311 959.618 471.446 959.762C472.157 960.523 487.116 917.745 486.605 916.412C486.122 915.154 434.575 831.614 433.337 830.083C433.152 829.854 433 845.423 433 864.681ZM590.52 934.988L532.54 935.5L523.289 960.5C518.201 974.25 514.03 985.838 514.019 986.25C514.009 986.662 546.4 987 586 987C625.6 987 658 986.846 658 986.658C658 986.469 662.275 974.734 667.5 960.578C672.725 946.423 677 934.652 677 934.421C677 934.189 670.588 934.107 662.75 934.238C654.912 934.369 622.409 934.706 590.52 934.988ZM572 1196.54C552.573 1199.6 541.922 1206.58 538.453 1218.51C536.959 1223.65 537.057 1229.21 539.934 1302.26C541.63 1345.29 543.425 1382.23 543.925 1384.35C546.507 1395.28 556.244 1403.34 566.874 1403.33C574.067 1403.32 580.41 1400.53 585.129 1395.29C590.391 1389.45 591.531 1385.29 591.311 1372.75C591.207 1366.84 591.352 1362 591.633 1362C591.914 1362 602.509 1371.47 615.179 1383.03C627.848 1394.6 639.925 1404.94 642.015 1406.01C658.145 1414.24 677 1402.91 677 1385C677 1374.41 674.983 1371.87 644.401 1343.93C629.331 1330.16 617 1318.71 617 1318.49C617 1318.28 619.813 1316.46 623.25 1314.46C640.047 1304.69 652.044 1292.66 659.093 1278.5C667.292 1262.03 667.417 1245.54 659.461 1229.86C646.678 1204.68 609.689 1190.59 572 1196.54ZM232.713 1198.42C226.229 1200.17 221.063 1204.51 217.691 1211.05C215.248 1215.79 214.964 1217.22 215.513 1222C215.859 1225.03 216.448 1262.83 216.822 1306C217.575 1393.14 217.181 1388.41 224.301 1395.84C231.865 1403.73 238.579 1405.03 256.274 1402.04C320.69 1391.15 366.947 1358.75 379.381 1315.81C385.85 1293.46 382.284 1271.55 368.928 1251.58C349.803 1222.99 310.914 1203.19 263.789 1198.06C251.082 1196.67 238.675 1196.82 232.713 1198.42ZM450.852 1206.39C443.479 1209.02 438.776 1214.2 435.422 1223.37C434.19 1226.74 419.161 1262.12 402.025 1302C368.955 1378.96 368.418 1380.47 370.943 1389.81C372.338 1394.97 377.838 1401.34 383.432 1404.29C386.379 1405.84 389.291 1406.43 394 1406.43C405.935 1406.43 413.052 1400.42 419.464 1384.95L423.191 1375.96L445.767 1376.23L468.343 1376.5L469.676 1382.37C472.502 1394.82 479.191 1402.51 489.442 1405.09C503.815 1408.71 518.497 1396.72 518.295 1381.52C518.241 1377.48 512.614 1351.55 501.147 1302.5C491.759 1262.35 483.282 1226.8 482.31 1223.5C480.088 1215.96 472.652 1207.78 466.5 1206.1C461.247 1204.67 455.367 1204.78 450.852 1206.39ZM696.864 1208.79C690.274 1212.21 685.628 1218.66 683.96 1226.69C683.07 1230.98 682.997 1251.7 683.66 1311.43C684.527 1389.51 684.565 1390.55 686.681 1394.5C687.86 1396.7 690.327 1399.94 692.162 1401.7C703.76 1412.82 722.947 1408.95 729.848 1394.11C732.251 1388.94 732.496 1387.15 732.978 1371.21L733.5 1353.92L755.313 1377.42C780.568 1404.62 783.204 1406.54 794.393 1405.83C813.227 1404.63 823.23 1384.07 812.601 1368.4C811.446 1366.7 797.45 1351.24 781.5 1334.06C765.55 1316.87 752.5 1302.22 752.5 1301.49C752.5 1300.77 762.175 1288.85 774 1275.01C785.825 1261.17 796.565 1248.07 797.867 1245.9C799.427 1243.3 800.409 1239.78 800.745 1235.59C801.174 1230.25 800.856 1228.37 798.748 1223.76C792.314 1209.71 774.377 1205.54 762.172 1215.27C759.938 1217.04 752.236 1225.39 745.056 1233.82L732 1249.14V1238.75C732 1226.08 730.195 1219.33 725.38 1214C717.799 1205.61 706.839 1203.6 696.864 1208.79ZM587.254 1259.92C587.564 1268.85 588.019 1276.35 588.267 1276.6C589.154 1277.49 598.483 1272.83 604.68 1268.41C615.042 1261.01 618.86 1253.1 613.699 1249.72C609.629 1247.06 601.696 1244.85 594.095 1244.26L586.69 1243.69L587.254 1259.92ZM266 1298.63C266 1342.35 266.212 1350 267.42 1350C270.057 1350 286.443 1343.8 294.5 1339.75C305.714 1334.11 313.503 1328.66 320.633 1321.44C338.788 1303.04 337.815 1282.6 318.071 1267.61C305.183 1257.83 290.695 1251.87 270.75 1248.15L266 1247.26V1298.63ZM450.584 1312.28C449.683 1314.36 447.857 1318.53 446.528 1321.53L444.11 1327H450.428H456.745L454.848 1318.75C452.322 1307.77 452.454 1307.97 450.584 1312.28ZM105.324 1398.38C88.659 1403.82 77.3731 1422.52 80.8821 1438.88C83.5211 1451.19 90.4801 1459.98 101.799 1465.3C107.521 1467.99 109.596 1468.44 116 1468.39C130.03 1468.27 142.271 1460.73 148.545 1448.34C151.232 1443.03 151.5 1441.59 151.499 1432.5C151.499 1423.49 151.222 1421.97 148.714 1417.21C144.737 1409.66 139.96 1404.79 132.768 1400.95C127.3 1398.03 125.416 1397.57 118 1397.31C112.751 1397.13 107.903 1397.54 105.324 1398.38ZM903.324 1398.38C886.659 1403.82 875.373 1422.52 878.882 1438.88C881.521 1451.19 888.48 1459.98 899.799 1465.3C905.521 1467.99 907.596 1468.44 914 1468.39C928.03 1468.27 940.271 1460.73 946.545 1448.34C949.232 1443.03 949.5 1441.59 949.499 1432.5C949.499 1423.49 949.222 1421.97 946.714 1417.21C942.737 1409.66 937.96 1404.79 930.768 1400.95C925.3 1398.03 923.416 1397.57 916 1397.31C910.751 1397.13 905.903 1397.54 903.324 1398.38ZM109.5 1413.21C101.354 1416.05 95.983 1423.77 96.022 1432.57C96.075 1444.48 104.678 1453 116.652 1453C126.539 1453 135.047 1445.54 136.545 1435.55C138.767 1420.73 123.664 1408.26 109.5 1413.21ZM907.5 1413.21C899.354 1416.05 893.983 1423.77 894.022 1432.57C894.075 1444.48 902.678 1453 914.652 1453C924.539 1453 933.047 1445.54 934.545 1435.55C936.767 1420.73 921.664 1408.26 907.5 1413.21Z" fill="current"/>
</svg>
